<?xml version="1.0" standalone="no"?>
<!DOCTYPE svg PUBLIC "-//W3C//DTD SVG 20010904//EN"
 "http://www.w3.org/TR/2001/REC-SVG-20010904/DTD/svg10.dtd">
<svg version="1.0" xmlns="http://www.w3.org/2000/svg"
 width="77.000000pt" height="77.000000pt" viewBox="0 0 77.000000 77.000000"
 preserveAspectRatio="xMidYMid meet">
<metadata>
Created by potrace 1.14, written by Peter Selinger 2001-2017
</metadata>
<g transform="translate(0.000000,77.000000) scale(0.100000,-0.100000)"
fill="#000000" stroke="none">
<path d="M247 673 l-158 -95 3 -180 c3 -182 10 -218 42 -218 8 0 19 -7 26 -15
6 -8 15 -13 18 -12 4 1 35 -15 70 -36 35 -20 67 -37 73 -37 5 0 9 -5 9 -11 0
-5 4 -8 9 -4 5 3 12 1 16 -5 3 -6 20 -17 36 -25 29 -15 31 -15 132 47 56 35
104 63 107 63 3 0 19 9 35 20 17 11 39 25 50 31 19 11 20 22 20 198 0 113 -4
191 -10 196 -5 4 -28 18 -50 30 -77 44 -130 73 -165 93 -19 10 -40 23 -45 27
-6 5 -22 13 -35 18 -22 8 -47 -4 -183 -85z"/>
</g>
</svg>
